solid CATIA STL
  facet normal -1.086307e-001 -4.518235e-003 -9.940718e-001
    outer loop
      vertex -8.456813e+000  1.289821e+001  3.346470e+000
      vertex -3.490747e+000  1.310476e+001  2.802847e+000
      vertex -8.249030e+000  7.902531e+000  3.346470e+000
    endloop
  endfacet
  facet normal -1.086307e-001 -4.518243e-003 -9.940719e-001
    outer loop
      vertex -8.249030e+000  7.902531e+000  3.346470e+000
      vertex -3.490747e+000  1.310476e+001  2.802847e+000
      vertex -3.282964e+000  8.109083e+000  2.802847e+000
    endloop
  endfacet
  facet normal  1.086308e-001  4.518239e-003  9.940719e-001
    outer loop
      vertex -7.913660e+000  1.292080e+001  8.316830e+000
      vertex -7.705876e+000  7.925122e+000  8.316830e+000
      vertex -2.947594e+000  1.312735e+001  7.773206e+000
    endloop
  endfacet
  facet normal  1.086307e-001  4.518247e-003  9.940718e-001
    outer loop
      vertex -2.947594e+000  1.312735e+001  7.773206e+000
      vertex -7.705876e+000  7.925122e+000  8.316830e+000
      vertex -2.739810e+000  8.131675e+000  7.773206e+000
    endloop
  endfacet
  facet normal  4.155678e-002 -9.991361e-001  3.596390e-008
    outer loop
      vertex -7.705876e+000  7.925122e+000  8.316830e+000
      vertex -8.249030e+000  7.902531e+000  3.346470e+000
      vertex -2.739810e+000  8.131675e+000  7.773206e+000
    endloop
  endfacet
  facet normal  4.155678e-002 -9.991361e-001  3.596390e-008
    outer loop
      vertex -2.739810e+000  8.131675e+000  7.773206e+000
      vertex -8.249030e+000  7.902531e+000  3.346470e+000
      vertex -3.282964e+000  8.109083e+000  2.802847e+000
    endloop
  endfacet
  facet normal  9.932132e-001  4.131043e-002 -1.087246e-001
    outer loop
      vertex -2.739810e+000  8.131675e+000  7.773206e+000
      vertex -3.282964e+000  8.109083e+000  2.802847e+000
      vertex -2.947594e+000  1.312735e+001  7.773206e+000
    endloop
  endfacet
  facet normal  9.932132e-001  4.131042e-002 -1.087246e-001
    outer loop
      vertex -2.947594e+000  1.312735e+001  7.773206e+000
      vertex -3.282964e+000  8.109083e+000  2.802847e+000
      vertex -3.490747e+000  1.310476e+001  2.802847e+000
    endloop
  endfacet
  facet normal -4.155677e-002  9.991361e-001  1.159331e-007
    outer loop
      vertex -2.947594e+000  1.312735e+001  7.773206e+000
      vertex -3.490747e+000  1.310476e+001  2.802847e+000
      vertex -7.913660e+000  1.292080e+001  8.316830e+000
    endloop
  endfacet
  facet normal -4.155676e-002  9.991361e-001  1.159331e-007
    outer loop
      vertex -7.913660e+000  1.292080e+001  8.316830e+000
      vertex -3.490747e+000  1.310476e+001  2.802847e+000
      vertex -8.456813e+000  1.289821e+001  3.346470e+000
    endloop
  endfacet
  facet normal -9.932132e-001 -4.131036e-002  1.087246e-001
    outer loop
      vertex -7.913660e+000  1.292080e+001  8.316830e+000
      vertex -8.456813e+000  1.289821e+001  3.346470e+000
      vertex -7.705876e+000  7.925122e+000  8.316830e+000
    endloop
  endfacet
  facet normal -9.932132e-001 -4.131035e-002  1.087246e-001
    outer loop
      vertex -7.705876e+000  7.925122e+000  8.316830e+000
      vertex -8.456813e+000  1.289821e+001  3.346470e+000
      vertex -8.249030e+000  7.902531e+000  3.346470e+000
    endloop
  endfacet
  facet normal -1.086307e-001 -4.518252e-003 -9.940718e-001
    outer loop
      vertex -4.369270e+000  8.063901e+000 -7.137872e+000
      vertex  5.562861e+000  8.477005e+000 -8.225119e+000
      vertex -3.953703e+000 -1.927461e+000 -7.137872e+000
    endloop
  endfacet
  facet normal -1.086307e-001 -4.518252e-003 -9.940718e-001
    outer loop
      vertex -3.953703e+000 -1.927461e+000 -7.137872e+000
      vertex  5.562861e+000  8.477005e+000 -8.225119e+000
      vertex  5.978429e+000 -1.514356e+000 -8.225119e+000
    endloop
  endfacet
  facet normal  1.086307e-001  4.518244e-003  9.940718e-001
    outer loop
      vertex -3.282964e+000  8.109083e+000  2.802847e+000
      vertex -2.867396e+000 -1.882278e+000  2.802847e+000
      vertex  6.649168e+000  8.522187e+000  1.715601e+000
    endloop
  endfacet
  facet normal  1.086307e-001  4.518244e-003  9.940718e-001
    outer loop
      vertex  6.649168e+000  8.522187e+000  1.715601e+000
      vertex -2.867396e+000 -1.882278e+000  2.802847e+000
      vertex  7.064736e+000 -1.469174e+000  1.715601e+000
    endloop
  endfacet
  facet normal  4.155678e-002 -9.991361e-001 -1.924170e-009
    outer loop
      vertex -2.867396e+000 -1.882278e+000  2.802847e+000
      vertex -3.953703e+000 -1.927461e+000 -7.137872e+000
      vertex  7.064736e+000 -1.469174e+000  1.715601e+000
    endloop
  endfacet
  facet normal  4.155677e-002 -9.991361e-001  6.835606e-009
    outer loop
      vertex  7.064736e+000 -1.469174e+000  1.715601e+000
      vertex -3.953703e+000 -1.927461e+000 -7.137872e+000
      vertex  5.978429e+000 -1.514356e+000 -8.225119e+000
    endloop
  endfacet
  facet normal  9.932132e-001  4.131043e-002 -1.087246e-001
    outer loop
      vertex  7.064736e+000 -1.469174e+000  1.715601e+000
      vertex  5.978429e+000 -1.514356e+000 -8.225119e+000
      vertex  6.649168e+000  8.522187e+000  1.715601e+000
    endloop
  endfacet
  facet normal  9.932132e-001  4.131043e-002 -1.087246e-001
    outer loop
      vertex  6.649168e+000  8.522187e+000  1.715601e+000
      vertex  5.978429e+000 -1.514356e+000 -8.225119e+000
      vertex  5.562861e+000  8.477005e+000 -8.225119e+000
    endloop
  endfacet
  facet normal -4.155677e-002  9.991361e-001  3.981225e-008
    outer loop
      vertex -3.282964e+000  8.109083e+000  2.802847e+000
      vertex  6.649168e+000  8.522187e+000  1.715601e+000
      vertex -4.369270e+000  8.063901e+000 -7.137872e+000
    endloop
  endfacet
  facet normal -4.155677e-002  9.991361e-001  3.981225e-008
    outer loop
      vertex -4.369270e+000  8.063901e+000 -7.137872e+000
      vertex  6.649168e+000  8.522187e+000  1.715601e+000
      vertex  5.562861e+000  8.477005e+000 -8.225119e+000
    endloop
  endfacet
  facet normal -9.932132e-001 -4.131043e-002  1.087246e-001
    outer loop
      vertex -2.867396e+000 -1.882278e+000  2.802847e+000
      vertex -3.282964e+000  8.109083e+000  2.802847e+000
      vertex -3.953703e+000 -1.927461e+000 -7.137872e+000
    endloop
  endfacet
  facet normal -9.932132e-001 -4.131043e-002  1.087246e-001
    outer loop
      vertex -3.953703e+000 -1.927461e+000 -7.137872e+000
      vertex -3.282964e+000  8.109083e+000  2.802847e+000
      vertex -4.369270e+000  8.063901e+000 -7.137872e+000
    endloop
  endfacet
endsolid CATIA STL
