solid CATIA STL
  facet normal  1.086307e-001  4.518233e-003  9.940718e-001
    outer loop
      vertex  1.805213e+001  1.400086e+001  1.603920e+001
      vertex  3.791639e+001  1.482707e+001  1.386471e+001
      vertex  1.792746e+001  1.699827e+001  1.603920e+001
    endloop
  endfacet
  facet normal  1.086307e-001  4.518304e-003  9.940720e-001
    outer loop
      vertex  1.792746e+001  1.699827e+001  1.603920e+001
      vertex  3.791639e+001  1.482707e+001  1.386471e+001
      vertex  3.779172e+001  1.782447e+001  1.386471e+001
    endloop
  endfacet
  facet normal -1.086307e-001 -4.518305e-003 -9.940719e-001
    outer loop
      vertex  1.799781e+001  1.399860e+001  1.554217e+001
      vertex  1.787314e+001  1.699601e+001  1.554217e+001
      vertex  3.786208e+001  1.482481e+001  1.336767e+001
    endloop
  endfacet
  facet normal -1.086307e-001 -4.518164e-003 -9.940718e-001
    outer loop
      vertex  3.786208e+001  1.482481e+001  1.336767e+001
      vertex  1.787314e+001  1.699601e+001  1.554217e+001
      vertex  3.773741e+001  1.782222e+001  1.336767e+001
    endloop
  endfacet
  facet normal -4.155700e-002  9.991362e-001 -2.140771e-006
    outer loop
      vertex  1.792746e+001  1.699827e+001  1.603920e+001
      vertex  3.779172e+001  1.782447e+001  1.386471e+001
      vertex  1.787314e+001  1.699601e+001  1.554217e+001
    endloop
  endfacet
  facet normal -4.155668e-002  9.991361e-001  1.500378e-006
    outer loop
      vertex  1.787314e+001  1.699601e+001  1.554217e+001
      vertex  3.779172e+001  1.782447e+001  1.386471e+001
      vertex  3.773741e+001  1.782222e+001  1.336767e+001
    endloop
  endfacet
  facet normal  9.932136e-001  4.131098e-002 -1.087212e-001
    outer loop
      vertex  3.779172e+001  1.782447e+001  1.386471e+001
      vertex  3.791639e+001  1.482707e+001  1.386471e+001
      vertex  3.773741e+001  1.782222e+001  1.336767e+001
    endloop
  endfacet
  facet normal  9.932128e-001  4.130967e-002 -1.087288e-001
    outer loop
      vertex  3.773741e+001  1.782222e+001  1.336767e+001
      vertex  3.791639e+001  1.482707e+001  1.386471e+001
      vertex  3.786208e+001  1.482481e+001  1.336767e+001
    endloop
  endfacet
  facet normal  4.155681e-002 -9.991361e-001  8.403180e-008
    outer loop
      vertex  3.791639e+001  1.482707e+001  1.386471e+001
      vertex  1.805213e+001  1.400086e+001  1.603920e+001
      vertex  3.786208e+001  1.482481e+001  1.336767e+001
    endloop
  endfacet
  facet normal  4.155685e-002 -9.991361e-001  3.983439e-007
    outer loop
      vertex  3.786208e+001  1.482481e+001  1.336767e+001
      vertex  1.805213e+001  1.400086e+001  1.603920e+001
      vertex  1.799781e+001  1.399860e+001  1.554217e+001
    endloop
  endfacet
  facet normal -9.932135e-001 -4.131034e-002  1.087213e-001
    outer loop
      vertex  1.805213e+001  1.400086e+001  1.603920e+001
      vertex  1.792746e+001  1.699827e+001  1.603920e+001
      vertex  1.799781e+001  1.399860e+001  1.554217e+001
    endloop
  endfacet
  facet normal -9.932131e-001 -4.131096e-002  1.087251e-001
    outer loop
      vertex  1.799781e+001  1.399860e+001  1.554217e+001
      vertex  1.792746e+001  1.699827e+001  1.603920e+001
      vertex  1.787314e+001  1.699601e+001  1.554217e+001
    endloop
  endfacet
endsolid CATIA STL
