solid CATIA STL
  facet normal  1.086307e-001  4.518220e-003  9.940719e-001
    outer loop
      vertex -6.003785e+000  6.995052e+000  5.117165e+000
      vertex  9.487073e-001  7.284225e+000  4.356092e+000
      vertex -6.045341e+000  7.994189e+000  5.117165e+000
    endloop
  endfacet
  facet normal  1.086307e-001  4.517945e-003  9.940718e-001
    outer loop
      vertex -6.045341e+000  7.994189e+000  5.117165e+000
      vertex  9.487073e-001  7.284225e+000  4.356092e+000
      vertex -3.065702e+000  8.118120e+000  4.790991e+000
    endloop
  endfacet
  facet normal  1.086308e-001  4.518248e-003  9.940718e-001
    outer loop
      vertex  9.487073e-001  7.284225e+000  4.356092e+000
      vertex  7.824802e-001  1.128077e+001  4.356092e+000
      vertex -3.065702e+000  8.118120e+000  4.790991e+000
    endloop
  endfacet
  facet normal  1.086308e-001  4.518243e-003  9.940719e-001
    outer loop
      vertex -3.065702e+000  8.118120e+000  4.790991e+000
      vertex  7.824802e-001  1.128077e+001  4.356092e+000
      vertex -3.190372e+000  1.111553e+001  4.790991e+000
    endloop
  endfacet
  facet normal  9.932132e-001  4.131042e-002 -1.087246e-001
    outer loop
      vertex -3.038267e-001  1.123559e+001 -5.584627e+000
      vertex  7.824802e-001  1.128077e+001  4.356092e+000
      vertex -1.791563e-001  8.238179e+000 -5.584627e+000
    endloop
  endfacet
  facet normal  9.932132e-001  4.131040e-002 -1.087246e-001
    outer loop
      vertex -1.791563e-001  8.238179e+000 -5.584627e+000
      vertex  7.824802e-001  1.128077e+001  4.356092e+000
      vertex  6.898891e-001  8.274325e+000  2.367948e+000
    endloop
  endfacet
  facet normal  9.932132e-001  4.131042e-002 -1.087246e-001
    outer loop
      vertex  7.824802e-001  1.128077e+001  4.356092e+000
      vertex  9.487073e-001  7.284225e+000  4.356092e+000
      vertex  6.898891e-001  8.274325e+000  2.367948e+000
    endloop
  endfacet
  facet normal  9.932131e-001  4.131043e-002 -1.087246e-001
    outer loop
      vertex  6.898891e-001  8.274325e+000  2.367948e+000
      vertex  9.487073e-001  7.284225e+000  4.356092e+000
      vertex  7.314460e-001  7.275188e+000  2.367948e+000
    endloop
  endfacet
  facet normal -4.155686e-002  9.991361e-001 -2.708817e-008
    outer loop
      vertex  7.824802e-001  1.128077e+001  4.356092e+000
      vertex -3.038267e-001  1.123559e+001 -5.584627e+000
      vertex -3.190372e+000  1.111553e+001  4.790991e+000
    endloop
  endfacet
  facet normal -4.155646e-002  9.991361e-001  8.502850e-008
    outer loop
      vertex -3.190372e+000  1.111553e+001  4.790991e+000
      vertex -3.038267e-001  1.123559e+001 -5.584627e+000
      vertex -3.407634e+000  1.110649e+001  2.802847e+000
    endloop
  endfacet
  facet normal -4.155681e-002  9.991361e-001 -4.425227e-008
    outer loop
      vertex -3.038267e-001  1.123559e+001 -5.584627e+000
      vertex -7.256319e+000  1.094641e+001 -4.823555e+000
      vertex -3.407634e+000  1.110649e+001  2.802847e+000
    endloop
  endfacet
  facet normal -4.155698e-002  9.991361e-001  4.241105e-008
    outer loop
      vertex -3.407634e+000  1.110649e+001  2.802847e+000
      vertex -7.256319e+000  1.094641e+001 -4.823555e+000
      vertex -6.387273e+000  1.098256e+001  3.129021e+000
    endloop
  endfacet
  facet normal -9.932132e-001 -4.131038e-002  1.087246e-001
    outer loop
      vertex -7.256319e+000  1.094641e+001 -4.823555e+000
      vertex -7.090092e+000  6.949870e+000 -4.823555e+000
      vertex -6.387273e+000  1.098256e+001  3.129021e+000
    endloop
  endfacet
  facet normal -9.932132e-001 -4.131046e-002  1.087246e-001
    outer loop
      vertex -6.387273e+000  1.098256e+001  3.129021e+000
      vertex -7.090092e+000  6.949870e+000 -4.823555e+000
      vertex -6.262603e+000  7.985152e+000  3.129021e+000
    endloop
  endfacet
  facet normal -9.932132e-001 -4.131036e-002  1.087246e-001
    outer loop
      vertex -7.090092e+000  6.949870e+000 -4.823555e+000
      vertex -6.003785e+000  6.995052e+000  5.117165e+000
      vertex -6.262603e+000  7.985152e+000  3.129021e+000
    endloop
  endfacet
  facet normal -9.932132e-001 -4.131019e-002  1.087247e-001
    outer loop
      vertex -6.262603e+000  7.985152e+000  3.129021e+000
      vertex -6.003785e+000  6.995052e+000  5.117165e+000
      vertex -6.045341e+000  7.994189e+000  5.117165e+000
    endloop
  endfacet
  facet normal  4.155674e-002 -9.991361e-001  7.796552e-008
    outer loop
      vertex -4.110452e+000  7.073801e+000 -5.149728e+000
      vertex -3.241407e+000  7.109947e+000  2.802847e+000
      vertex -7.090092e+000  6.949870e+000 -4.823555e+000
    endloop
  endfacet
  facet normal  4.155683e-002 -9.991361e-001  3.055357e-008
    outer loop
      vertex -7.090092e+000  6.949870e+000 -4.823555e+000
      vertex -3.241407e+000  7.109947e+000  2.802847e+000
      vertex -6.003785e+000  6.995052e+000  5.117165e+000
    endloop
  endfacet
  facet normal  4.155664e-002 -9.991362e-001 -1.952052e-007
    outer loop
      vertex -3.241407e+000  7.109947e+000  2.802847e+000
      vertex  7.314460e-001  7.275188e+000  2.367948e+000
      vertex -6.003785e+000  6.995052e+000  5.117165e+000
    endloop
  endfacet
  facet normal  4.155683e-002 -9.991361e-001  2.578712e-007
    outer loop
      vertex -6.003785e+000  6.995052e+000  5.117165e+000
      vertex  7.314460e-001  7.275188e+000  2.367948e+000
      vertex  9.487073e-001  7.284225e+000  4.356092e+000
    endloop
  endfacet
  facet normal -1.086307e-001 -4.518245e-003 -9.940719e-001
    outer loop
      vertex -7.256319e+000  1.094641e+001 -4.823555e+000
      vertex -3.038267e-001  1.123559e+001 -5.584627e+000
      vertex -1.791563e-001  8.238179e+000 -5.584627e+000
    endloop
  endfacet
  facet normal -1.086307e-001 -4.518254e-003 -9.940719e-001
    outer loop
      vertex -7.256319e+000  1.094641e+001 -4.823555e+000
      vertex -1.791563e-001  8.238179e+000 -5.584627e+000
      vertex -4.152009e+000  8.072937e+000 -5.149728e+000
    endloop
  endfacet
  facet normal -1.086306e-001 -4.518216e-003 -9.940718e-001
    outer loop
      vertex -7.256319e+000  1.094641e+001 -4.823555e+000
      vertex -4.152009e+000  8.072937e+000 -5.149728e+000
      vertex -4.110452e+000  7.073801e+000 -5.149728e+000
    endloop
  endfacet
  facet normal -1.086307e-001 -4.518240e-003 -9.940719e-001
    outer loop
      vertex -7.256319e+000  1.094641e+001 -4.823555e+000
      vertex -4.110452e+000  7.073801e+000 -5.149728e+000
      vertex -7.090092e+000  6.949870e+000 -4.823555e+000
    endloop
  endfacet
  facet normal -9.932132e-001 -4.131041e-002  1.087246e-001
    outer loop
      vertex -2.867396e+000 -1.882278e+000  2.802847e+000
      vertex -3.241407e+000  7.109947e+000  2.802847e+000
      vertex -3.953703e+000 -1.927461e+000 -7.137872e+000
    endloop
  endfacet
  facet normal -9.932132e-001 -4.131044e-002  1.087246e-001
    outer loop
      vertex -3.953703e+000 -1.927461e+000 -7.137872e+000
      vertex -3.241407e+000  7.109947e+000  2.802847e+000
      vertex -4.110452e+000  7.073801e+000 -5.149728e+000
    endloop
  endfacet
  facet normal -9.932132e-001 -4.131043e-002  1.087246e-001
    outer loop
      vertex -3.953703e+000 -1.927461e+000 -7.137872e+000
      vertex -4.110452e+000  7.073801e+000 -5.149728e+000
      vertex -4.369270e+000  8.063901e+000 -7.137872e+000
    endloop
  endfacet
  facet normal -9.932132e-001 -4.131019e-002  1.087247e-001
    outer loop
      vertex -4.369270e+000  8.063901e+000 -7.137872e+000
      vertex -4.110452e+000  7.073801e+000 -5.149728e+000
      vertex -4.152009e+000  8.072937e+000 -5.149728e+000
    endloop
  endfacet
  facet normal -4.155676e-002  9.991361e-001  1.190848e-007
    outer loop
      vertex -4.369270e+000  8.063901e+000 -7.137872e+000
      vertex -4.152009e+000  8.072937e+000 -5.149728e+000
      vertex  5.562861e+000  8.477005e+000 -8.225119e+000
    endloop
  endfacet
  facet normal -4.155688e-002  9.991361e-001 -2.592150e-007
    outer loop
      vertex  5.562861e+000  8.477005e+000 -8.225119e+000
      vertex -4.152009e+000  8.072937e+000 -5.149728e+000
      vertex -1.791563e-001  8.238179e+000 -5.584627e+000
    endloop
  endfacet
  facet normal -4.155675e-002  9.991361e-001  4.043117e-008
    outer loop
      vertex  5.562861e+000  8.477005e+000 -8.225119e+000
      vertex -1.791563e-001  8.238179e+000 -5.584627e+000
      vertex  6.649168e+000  8.522187e+000  1.715601e+000
    endloop
  endfacet
  facet normal -4.155672e-002  9.991361e-001  1.646741e-008
    outer loop
      vertex  6.649168e+000  8.522187e+000  1.715601e+000
      vertex -1.791563e-001  8.238179e+000 -5.584627e+000
      vertex  6.898891e-001  8.274325e+000  2.367948e+000
    endloop
  endfacet
  facet normal  1.086307e-001  4.518248e-003  9.940720e-001
    outer loop
      vertex -2.867396e+000 -1.882278e+000  2.802847e+000
      vertex  7.064736e+000 -1.469174e+000  1.715601e+000
      vertex -3.241407e+000  7.109947e+000  2.802847e+000
    endloop
  endfacet
  facet normal  1.086307e-001  4.518283e-003  9.940719e-001
    outer loop
      vertex -3.241407e+000  7.109947e+000  2.802847e+000
      vertex  7.064736e+000 -1.469174e+000  1.715601e+000
      vertex  7.314460e-001  7.275188e+000  2.367948e+000
    endloop
  endfacet
  facet normal  1.086307e-001  4.518244e-003  9.940720e-001
    outer loop
      vertex  7.064736e+000 -1.469174e+000  1.715601e+000
      vertex  6.649168e+000  8.522187e+000  1.715601e+000
      vertex  7.314460e-001  7.275188e+000  2.367948e+000
    endloop
  endfacet
  facet normal  1.086307e-001  4.518243e-003  9.940718e-001
    outer loop
      vertex  7.314460e-001  7.275188e+000  2.367948e+000
      vertex  6.649168e+000  8.522187e+000  1.715601e+000
      vertex  6.898891e-001  8.274325e+000  2.367948e+000
    endloop
  endfacet
  facet normal  4.155678e-002 -9.991361e-001 -1.924170e-009
    outer loop
      vertex -2.867396e+000 -1.882278e+000  2.802847e+000
      vertex -3.953703e+000 -1.927461e+000 -7.137872e+000
      vertex  7.064736e+000 -1.469174e+000  1.715601e+000
    endloop
  endfacet
  facet normal  4.155677e-002 -9.991361e-001  6.835606e-009
    outer loop
      vertex  7.064736e+000 -1.469174e+000  1.715601e+000
      vertex -3.953703e+000 -1.927461e+000 -7.137872e+000
      vertex  5.978429e+000 -1.514356e+000 -8.225119e+000
    endloop
  endfacet
  facet normal -1.086307e-001 -4.518252e-003 -9.940718e-001
    outer loop
      vertex -4.369270e+000  8.063901e+000 -7.137872e+000
      vertex  5.562861e+000  8.477005e+000 -8.225119e+000
      vertex -3.953703e+000 -1.927461e+000 -7.137872e+000
    endloop
  endfacet
  facet normal -1.086307e-001 -4.518252e-003 -9.940718e-001
    outer loop
      vertex -3.953703e+000 -1.927461e+000 -7.137872e+000
      vertex  5.562861e+000  8.477005e+000 -8.225119e+000
      vertex  5.978429e+000 -1.514356e+000 -8.225119e+000
    endloop
  endfacet
  facet normal  9.932132e-001  4.131043e-002 -1.087246e-001
    outer loop
      vertex  7.064736e+000 -1.469174e+000  1.715601e+000
      vertex  5.978429e+000 -1.514356e+000 -8.225119e+000
      vertex  6.649168e+000  8.522187e+000  1.715601e+000
    endloop
  endfacet
  facet normal  9.932132e-001  4.131043e-002 -1.087246e-001
    outer loop
      vertex  6.649168e+000  8.522187e+000  1.715601e+000
      vertex  5.978429e+000 -1.514356e+000 -8.225119e+000
      vertex  5.562861e+000  8.477005e+000 -8.225119e+000
    endloop
  endfacet
  facet normal  9.932132e-001  4.131040e-002 -1.087246e-001
    outer loop
      vertex -3.490747e+000  1.310476e+001  2.802847e+000
      vertex -2.947594e+000  1.312735e+001  7.773206e+000
      vertex -3.407634e+000  1.110649e+001  2.802847e+000
    endloop
  endfacet
  facet normal  9.932131e-001  4.131056e-002 -1.087247e-001
    outer loop
      vertex -3.407634e+000  1.110649e+001  2.802847e+000
      vertex -2.947594e+000  1.312735e+001  7.773206e+000
      vertex -3.190372e+000  1.111553e+001  4.790991e+000
    endloop
  endfacet
  facet normal  9.932132e-001  4.131043e-002 -1.087246e-001
    outer loop
      vertex -2.947594e+000  1.312735e+001  7.773206e+000
      vertex -2.739810e+000  8.131675e+000  7.773206e+000
      vertex -3.190372e+000  1.111553e+001  4.790991e+000
    endloop
  endfacet
  facet normal  9.932132e-001  4.131039e-002 -1.087246e-001
    outer loop
      vertex -3.190372e+000  1.111553e+001  4.790991e+000
      vertex -2.739810e+000  8.131675e+000  7.773206e+000
      vertex -3.065702e+000  8.118120e+000  4.790991e+000
    endloop
  endfacet
  facet normal  4.155685e-002 -9.991361e-001  2.802076e-008
    outer loop
      vertex -7.705876e+000  7.925122e+000  8.316830e+000
      vertex -8.249030e+000  7.902531e+000  3.346470e+000
      vertex -6.262603e+000  7.985152e+000  3.129021e+000
    endloop
  endfacet
  facet normal  4.155743e-002 -9.991361e-001  1.909002e-007
    outer loop
      vertex -7.705876e+000  7.925122e+000  8.316830e+000
      vertex -6.262603e+000  7.985152e+000  3.129021e+000
      vertex -6.045341e+000  7.994189e+000  5.117165e+000
    endloop
  endfacet
  facet normal  4.155671e-002 -9.991361e-001 -1.874219e-007
    outer loop
      vertex -7.705876e+000  7.925122e+000  8.316830e+000
      vertex -6.045341e+000  7.994189e+000  5.117165e+000
      vertex -3.065702e+000  8.118120e+000  4.790991e+000
    endloop
  endfacet
  facet normal  4.155676e-002 -9.991361e-001 -1.159413e-007
    outer loop
      vertex -7.705876e+000  7.925122e+000  8.316830e+000
      vertex -3.065702e+000  8.118120e+000  4.790991e+000
      vertex -2.739810e+000  8.131675e+000  7.773206e+000
    endloop
  endfacet
  facet normal  1.086308e-001  4.518239e-003  9.940719e-001
    outer loop
      vertex -7.913660e+000  1.292080e+001  8.316830e+000
      vertex -7.705876e+000  7.925122e+000  8.316830e+000
      vertex -2.947594e+000  1.312735e+001  7.773206e+000
    endloop
  endfacet
  facet normal  1.086307e-001  4.518247e-003  9.940718e-001
    outer loop
      vertex -2.947594e+000  1.312735e+001  7.773206e+000
      vertex -7.705876e+000  7.925122e+000  8.316830e+000
      vertex -2.739810e+000  8.131675e+000  7.773206e+000
    endloop
  endfacet
  facet normal -4.155677e-002  9.991361e-001  1.159331e-007
    outer loop
      vertex -2.947594e+000  1.312735e+001  7.773206e+000
      vertex -3.490747e+000  1.310476e+001  2.802847e+000
      vertex -7.913660e+000  1.292080e+001  8.316830e+000
    endloop
  endfacet
  facet normal -4.155676e-002  9.991361e-001  1.159331e-007
    outer loop
      vertex -7.913660e+000  1.292080e+001  8.316830e+000
      vertex -3.490747e+000  1.310476e+001  2.802847e+000
      vertex -8.456813e+000  1.289821e+001  3.346470e+000
    endloop
  endfacet
  facet normal -1.086307e-001 -4.518247e-003 -9.940720e-001
    outer loop
      vertex -6.262603e+000  7.985152e+000  3.129021e+000
      vertex -8.249030e+000  7.902531e+000  3.346470e+000
      vertex -6.387273e+000  1.098256e+001  3.129021e+000
    endloop
  endfacet
  facet normal -1.086307e-001 -4.518236e-003 -9.940720e-001
    outer loop
      vertex -6.387273e+000  1.098256e+001  3.129021e+000
      vertex -8.249030e+000  7.902531e+000  3.346470e+000
      vertex -8.456813e+000  1.289821e+001  3.346470e+000
    endloop
  endfacet
  facet normal -1.086307e-001 -4.518231e-003 -9.940720e-001
    outer loop
      vertex -6.387273e+000  1.098256e+001  3.129021e+000
      vertex -8.456813e+000  1.289821e+001  3.346470e+000
      vertex -3.407634e+000  1.110649e+001  2.802847e+000
    endloop
  endfacet
  facet normal -1.086307e-001 -4.518241e-003 -9.940720e-001
    outer loop
      vertex -3.407634e+000  1.110649e+001  2.802847e+000
      vertex -8.456813e+000  1.289821e+001  3.346470e+000
      vertex -3.490747e+000  1.310476e+001  2.802847e+000
    endloop
  endfacet
  facet normal -9.932132e-001 -4.131036e-002  1.087246e-001
    outer loop
      vertex -7.913660e+000  1.292080e+001  8.316830e+000
      vertex -8.456813e+000  1.289821e+001  3.346470e+000
      vertex -7.705876e+000  7.925122e+000  8.316830e+000
    endloop
  endfacet
  facet normal -9.932132e-001 -4.131035e-002  1.087246e-001
    outer loop
      vertex -7.705876e+000  7.925122e+000  8.316830e+000
      vertex -8.456813e+000  1.289821e+001  3.346470e+000
      vertex -8.249030e+000  7.902531e+000  3.346470e+000
    endloop
  endfacet
endsolid CATIA STL
